<svg xmlns="http://www.w3.org/2000/svg" viewBox="0 0 1280 640" role="img" aria-labelledby="title desc">
  <title id="title">Siteverb social preview</title>
  <desc id="desc">Siteverb WebMCP release infrastructure branding.</desc>
  <defs>
    <pattern id="grid" width="40" height="40" patternUnits="userSpaceOnUse">
      <path d="M40 0H0v40" fill="none" stroke="#dce2dc" stroke-width="1"/>
    </pattern>
    <clipPath id="siteverb-action">
      <path d="M75 74h197c12 0 24 5 32 14l151 146c13 12 13 32 0 44L304 424c-8 9-20 14-32 14H75c-18 0-33-15-33-33V107c0-18 15-33 33-33Z"/>
    </clipPath>
  </defs>
  <rect width="1280" height="640" fill="#f4f7f2"/>
  <rect width="1280" height="640" fill="url(#grid)" opacity=".7"/>
  <g transform="translate(44 64)" clip-path="url(#siteverb-action)" fill="#10161b">
    <rect y="72" width="512" height="40" rx="20"/>
    <rect y="136" width="512" height="40" rx="20"/>
    <rect y="200" width="512" height="40" rx="20"/>
    <rect y="264" width="512" height="40" rx="20"/>
    <rect y="328" width="512" height="40" rx="20"/>
    <rect y="392" width="512" height="40" rx="20"/>
  </g>
  <text x="586" y="160" fill="#426054" font-family="Avenir Next, Avenir, Helvetica Neue, sans-serif" font-size="27" font-weight="700">WEBMCP RELEASE INFRASTRUCTURE</text>
  <text x="582" y="304" fill="#10161b" font-family="Avenir Next, Avenir, Helvetica Neue, sans-serif" font-size="126" font-weight="600" letter-spacing="-4">siteverb</text>
  <text x="590" y="384" fill="#10161b" font-family="Avenir Next, Avenir, Helvetica Neue, sans-serif" font-size="40" font-weight="600">Reliable tools for AI agents.</text>
  <text x="590" y="438" fill="#56616a" font-family="Avenir Next, Avenir, Helvetica Neue, sans-serif" font-size="31">Proof for every release.</text>
  <rect x="590" y="490" width="88" height="10" rx="5" fill="#22b573"/>
  <rect x="694" y="490" width="54" height="10" rx="5" fill="#ff6854"/>
  <rect x="764" y="490" width="34" height="10" rx="5" fill="#f5c84c"/>
</svg>